Jump_normalized_pl07_filtered_grf
version=1
nRows=30
nColumns=37
inDegrees=yes
endheader
time		1_ground_force_vx		1_ground_force_vy		1_ground_force_vz		1_ground_force_px		1_ground_force_py		1_ground_force_pz		1_ground_torque_x		1_ground_torque_y		1_ground_torque_z		2_ground_force_vx		2_ground_force_vy		2_ground_force_vz		2_ground_force_px		2_ground_force_py		2_ground_force_pz		2_ground_torque_x		2_ground_torque_y		2_ground_torque_z		3_ground_force_vx		3_ground_force_vy		3_ground_force_vz		3_ground_force_px		3_ground_force_py		3_ground_force_pz		3_ground_torque_x		3_ground_torque_y		3_ground_torque_z		4_ground_force_vx		4_ground_force_vy		4_ground_force_vz		4_ground_force_px		4_ground_force_py		4_ground_force_pz		4_ground_torque_x		4_ground_torque_y		4_ground_torque_z		
0.157000		-0.000000		0.000000		0.000000		0.137251		0.000000		0.190652		0.000000		0.000000		-0.000000		0.000000		0.000000		0.000000		-0.203925		0.000000		0.212187		0.000000		-0.000000		0.000000		-121.226054		678.566879		-40.562432		0.413065		1.261634		1.878635		5.742180		-32.142045		1.921343		145.606931		682.105408		-109.439979		-0.354942		1.255405		1.905209		6.367755		29.830173		-4.786084		
0.159348		-0.000000		0.000000		0.000000		0.137251		0.000000		0.190652		0.000000		0.000000		-0.000000		0.000000		0.000000		0.000000		-0.203925		0.000000		0.212187		0.000000		-0.000000		0.000000		-119.647788		670.529498		-47.040455		0.413077		1.261661		1.878691		5.675242		-31.805160		2.231270		144.502705		672.526968		-113.428890		-0.354912		1.255418		1.905252		6.325732		29.440455		-4.965450		
0.161697		-0.000000		0.000000		0.000000		0.137251		0.000000		0.190652		0.000000		0.000000		-0.000000		0.000000		0.000000		0.000000		-0.203925		0.000000		0.212187		0.000000		-0.000000		0.000000		-117.952573		662.100938		-53.740921		0.413085		1.261689		1.878742		5.601723		-31.444045		2.552231		143.368069		662.718422		-117.436379		-0.354881		1.255431		1.905294		6.280743		29.032711		-5.144715		
0.164045		-0.000000		0.000000		0.000000		0.137251		0.000000		0.190652		0.000000		0.000000		-0.000000		0.000000		0.000000		0.000000		-0.203925		0.000000		0.212187		0.000000		-0.000000		0.000000		-116.149477		653.273055		-60.647222		0.413088		1.261717		1.878789		5.521834		-31.057099		2.883216		142.197221		652.684250		-121.434529		-0.354850		1.255444		1.905334		6.232540		28.607313		-5.322506		
0.166394		-0.000000		0.000000		0.000000		0.137251		0.000000		0.190652		0.000000		0.000000		-0.000000		0.000000		0.000000		0.000000		-0.203925		0.000000		0.212187		0.000000		-0.000000		0.000000		-114.246009		644.040859		-67.737826		0.413088		1.261744		1.878831		5.435738		-30.642976		3.222917		140.977757		642.424018		-125.390334		-0.354819		1.255457		1.905373		6.180633		28.164635		-5.497262		
0.168742		-0.000000		-0.000000		-0.000000		0.137251		0.000000		0.190652		-0.000000		0.000000		0.000000		0.000000		-0.000000		0.000000		-0.203925		0.000000		0.212187		-0.000000		-0.000000		-0.000000		-112.249970		634.413095		-74.982026		0.413084		1.261770		1.878869		5.343682		-30.201359		3.569536		139.691163		631.938590		-129.267748		-0.354788		1.255470		1.905410		6.124358		27.705536		-5.667373		
0.171091		-0.000000		-0.000000		-0.000000		0.137251		0.000000		0.190652		-0.000000		-0.000000		0.000000		0.000000		-0.000000		-0.000000		-0.203925		0.000000		0.212187		-0.000000		0.000000		-0.000000		-110.167206		624.405315		-82.345260		0.413075		1.261797		1.878904		5.245882		-29.732589		3.921071		138.312710		621.227671		-133.029587		-0.354758		1.255483		1.905445		6.062847		27.231108		-5.831265		
0.173439		-0.000000		-0.000000		-0.000000		0.137251		0.000000		0.190652		-0.000000		-0.000000		0.000000		0.000000		-0.000000		-0.000000		-0.203925		0.000000		0.212187		-0.000000		0.000000		-0.000000		-108.000812		614.036412		-89.790984		0.413064		1.261824		1.878936		5.142472		-29.237421		4.275409		136.811101		610.289585		-136.637828		-0.354728		1.255495		1.905479		5.995007		26.742645		-5.987414		
0.175788		-0.000000		-0.000000		-0.000000		0.137251		0.000000		0.190652		-0.000000		-0.000000		0.000000		0.000000		-0.000000		-0.000000		-0.203925		0.000000		0.212187		-0.000000		0.000000		-0.000000		-105.752233		603.332845		-97.280061		0.413052		1.261851		1.878967		5.033577		-28.717334		4.630317		135.150776		599.126033		-140.057338		-0.354698		1.255506		1.905509		5.919646		26.241907		-6.134554		
0.178136		-0.000000		-0.000000		-0.000000		0.137251		0.000000		0.190652		-0.000000		-0.000000		0.000000		0.000000		-0.000000		-0.000000		-0.203925		0.000000		0.212187		-0.000000		0.000000		-0.000000		-103.422207		592.329307		-104.773146		0.413040		1.261881		1.878997		4.919352		-28.174570		4.983607		133.296652		587.745814		-143.261531		-0.354669		1.255517		1.905536		5.835653		25.731187		-6.271910		
0.180485		0.000000		-0.000000		-0.000000		0.137251		0.000000		0.190652		-0.000000		-0.000000		0.000000		-0.000000		-0.000000		-0.000000		-0.203925		0.000000		0.212187		-0.000000		0.000000		-0.000000		-101.009835		581.060595		-112.232785		0.413028		1.261910		1.879026		4.799897		-27.611480		5.333201		131.213455		576.161712		-146.231136		-0.354640		1.255527		1.905561		5.741942		25.213016		-6.399120		
0.182833		0.000000		-0.000000		-0.000000		0.137251		0.000000		0.190652		-0.000000		-0.000000		0.000000		-0.000000		-0.000000		-0.000000		-0.203925		0.000000		0.212187		-0.000000		0.000000		-0.000000		-98.513715		569.562052		-119.622249		0.413018		1.261941		1.879055		4.675299		-27.030476		5.677068		128.867136		564.392199		-148.956130		-0.354612		1.255537		1.905581		5.637483		24.690170		-6.516305		
0.185182		0.000000		-0.000000		-0.000000		0.137251		0.000000		0.190652		-0.000000		-0.000000		0.000000		-0.000000		-0.000000		-0.000000		-0.203925		0.000000		0.212187		-0.000000		0.000000		-0.000000		-95.936250		557.875061		-126.909032		0.413011		1.261973		1.879085		4.545853		-26.434401		6.013460		126.237263		552.467194		-151.445784		-0.354584		1.255548		1.905597		5.521765		24.165560		-6.624416		
0.187530		0.000000		-0.000000		-0.000000		0.137251		0.000000		0.190652		-0.000000		-0.000000		0.000000		-0.000000		-0.000000		-0.000000		-0.203925		0.000000		0.212187		-0.000000		0.000000		-0.000000		-93.282030		546.037277		-134.062682		0.413006		1.262006		1.879114		4.411928		-25.825732		6.340713		123.310561		540.419713		-153.720200		-0.354555		1.255558		1.905609		5.394471		23.641759		-6.724803		
0.189879		0.000000		-0.000000		-0.000000		0.137251		0.000000		0.190652		-0.000000		-0.000000		0.000000		-0.000000		-0.000000		-0.000000		-0.203925		0.000000		0.212187		-0.000000		0.000000		-0.000000		-90.559532		534.083811		-141.053261		0.413005		1.262040		1.879144		4.274047		-25.206610		6.657138		120.082832		528.285298		-155.810380		-0.354524		1.255570		1.905617		5.255521		23.120828		-6.819167		
0.192227		0.000000		-0.000000		0.000000		0.137251		0.000000		0.190652		-0.000000		-0.000000		0.000000		-0.000000		-0.000000		-0.000000		-0.203925		0.000000		0.212187		-0.000000		0.000000		0.000000		-87.783838		522.049758		-147.854130		0.413006		1.262075		1.879172		4.133026		-24.579063		6.961230		116.569543		516.100358		-157.761289		-0.354492		1.255582		1.905619		5.105450		22.603886		-6.909546		
0.194576		0.000000		0.000000		0.000000		0.137251		0.000000		0.190652		0.000000		0.000000		-0.000000		-0.000000		0.000000		0.000000		-0.203925		0.000000		0.212187		0.000000		-0.000000		0.000000		-84.974874		509.965236		-154.438693		0.413010		1.262109		1.879199		3.989864		-23.944627		7.251421		112.798536		503.894440		-159.621161		-0.354457		1.255597		1.905619		4.945124		22.090893		-6.997844		
0.196924		0.000000		0.000000		0.000000		0.137251		0.000000		0.190652		0.000000		0.000000		-0.000000		-0.000000		0.000000		0.000000		-0.203925		0.000000		0.212187		0.000000		-0.000000		0.000000		-82.157311		497.855176		-160.777579		0.413016		1.262144		1.879225		3.845743		-23.304349		7.525908		108.809111		491.686285		-161.436877		-0.354419		1.255614		1.905614		4.775723		21.580525		-7.085602		
0.199273		0.000000		0.000000		0.000000		0.137251		0.000000		0.190652		0.000000		0.000000		-0.000000		-0.000000		0.000000		0.000000		-0.203925		0.000000		0.212187		0.000000		-0.000000		0.000000		-79.359778		485.738695		-166.841301		0.413022		1.262178		1.879250		3.702000		-22.658882		7.782843		104.654845		479.479379		-163.248706		-0.354379		1.255633		1.905607		4.598907		21.070038		-7.173735		
0.201621		0.000000		0.000000		0.000000		0.137251		0.000000		0.190652		0.000000		0.000000		-0.000000		-0.000000		0.000000		0.000000		-0.203925		0.000000		0.212187		0.000000		-0.000000		0.000000		-76.611501		473.627030		-172.600175		0.413027		1.262212		1.879272		3.559984		-22.008498		8.020368		100.398677		467.258718		-165.082376		-0.354335		1.255654		1.905596		4.416703		20.555482		-7.262248		
0.203970		-0.000000		0.000000		0.000000		0.137251		0.000000		0.190652		0.000000		0.000000		-0.000000		-0.000000		0.000000		0.000000		-0.203925		0.000000		0.212187		0.000000		-0.000000		0.000000		-73.939912		461.522452		-178.017957		0.413033		1.262245		1.879292		3.420950		-21.353081		8.236282		96.106831		454.989885		-166.944384		-0.354288		1.255679		1.905583		4.231316		20.031940		-7.350098		
0.206318		-0.000000		0.000000		0.000000		0.137251		0.000000		0.190652		0.000000		0.000000		-0.000000		0.000000		0.000000		0.000000		-0.203925		0.000000		0.212187		0.000000		-0.000000		0.000000		-71.367577		449.416670		-183.050698		0.413037		1.262277		1.879311		3.285934		-20.692206		8.428063		91.846799		442.618626		-168.817755		-0.354237		1.255705		1.905568		4.045105		19.493752		-7.435050		
0.208667		-0.000000		0.000000		0.000000		0.137251		0.000000		0.190652		0.000000		0.000000		-0.000000		0.000000		0.000000		0.000000		-0.203925		0.000000		0.212187		0.000000		-0.000000		0.000000		-68.905253		437.289691		-187.656106		0.413039		1.262309		1.879327		3.155469		-20.025376		8.593555		87.679611		430.077727		-170.659894		-0.354185		1.255733		1.905552		3.860364		18.935489		-7.513822		
0.211015		-0.000000		0.000000		0.000000		0.137251		0.000000		0.190652		0.000000		0.000000		-0.000000		0.000000		0.000000		0.000000		-0.203925		0.000000		0.212187		0.000000		-0.000000		0.000000		-66.551436		425.109559		-191.781394		0.413039		1.262342		1.879341		3.029570		-19.351934		8.730313		83.655268		417.289537		-172.404157		-0.354131		1.255762		1.905535		3.679088		18.352042		-7.582189		
0.213364		-0.000000		0.000000		0.000000		0.137251		0.000000		0.190652		0.000000		0.000000		-0.000000		0.000000		0.000000		0.000000		-0.203925		0.000000		0.212187		0.000000		-0.000000		0.000000		-64.289682		412.830147		-195.359177		0.413037		1.262374		1.879354		2.907633		-18.671085		8.835492		79.811312		404.166885		-173.957808		-0.354076		1.255793		1.905516		3.502892		17.738745		-7.634941		
0.215712		-0.000000		0.000000		0.000000		0.137251		0.000000		0.190652		0.000000		0.000000		-0.000000		0.000000		0.000000		0.000000		-0.203925		0.000000		0.212187		0.000000		-0.000000		0.000000		-62.084208		400.395701		-198.327058		0.413034		1.262407		1.879366		2.788272		-17.982215		8.907056		76.162232		390.631561		-175.213181		-0.354022		1.255824		1.905496		3.332626		17.092835		-7.666777		
0.218061		-0.000000		-0.000000		-0.000000		0.137251		0.000000		0.190652		-0.000000		-0.000000		0.000000		0.000000		-0.000000		-0.000000		-0.203925		0.000000		0.212187		-0.000000		-0.000000		-0.000000		-59.884553		387.740495		-200.611728		0.413029		1.262442		1.879377		2.669534		-17.284701		8.942858		72.703602		376.610045		-176.048774		-0.353968		1.255855		1.905474		3.168432		16.412710		-7.672219		
0.220409		-0.000000		-0.000000		-0.000000		0.137251		0.000000		0.190652		-0.000000		-0.000000		0.000000		0.000000		-0.000000		-0.000000		-0.203925		0.000000		0.212187		-0.000000		0.000000		-0.000000		-57.626193		374.788281		-202.126529		0.413023		1.262478		1.879386		2.548964		-16.577910		8.940589		69.412423		362.033813		-176.328901		-0.353916		1.255885		1.905450		3.009738		15.697865		-7.645648		
0.222758		-0.000000		-0.000000		-0.000000		0.137251		0.000000		0.190652		-0.000000		-0.000000		0.000000		0.000000		-0.000000		-0.000000		-0.203925		0.000000		0.212187		-0.000000		0.000000		-0.000000		-55.235907		361.461259		-202.788009		0.413016		1.262515		1.879392		2.423828		-15.861413		8.898583		66.244914		346.853389		-175.920071		-0.353867		1.255913		1.905421		2.855184		14.949526		-7.582206		
0.225106		-0.000000		-0.000000		-0.000000		0.137251		0.000000		0.190652		-0.000000		-0.000000		0.000000		0.000000		-0.000000		-0.000000		-0.203925		0.000000		0.212187		-0.000000		0.000000		-0.000000		-52.640144		347.684312		-202.514988		0.413011		1.262555		1.879395		2.291461		-15.134921		8.815588		63.143223		331.037215		-174.696660		-0.353820		1.255940		1.905389		2.702860		14.170121		-7.477913		
